<?xml version="1.0" standalone="no"?>
<!DOCTYPE svg PUBLIC "-//W3C//DTD SVG 20010904//EN"
 "http://www.w3.org/TR/2001/REC-SVG-20010904/DTD/svg10.dtd">
<svg version="1.0" xmlns="http://www.w3.org/2000/svg"
 width="282.000000pt" height="281.000000pt" viewBox="0 0 282.000000 281.000000"
 preserveAspectRatio="xMidYMid meet">

<g transform="translate(0.000000,281.000000) scale(0.100000,-0.100000)"
fill="#000000" stroke="none">
<path d="M1174 2751 c-556 -98 -988 -518 -1110 -1081 -26 -121 -26 -419 0
-540 70 -324 239 -599 492 -802 404 -325 974 -391 1443 -167 400 190 668 532
763 972 31 145 31 389 0 534 -95 440 -363 782 -763 972 -249 119 -551 160
-825 112z m890 -387 c14 -13 16 -49 16 -243 0 -163 -3 -230 -12 -239 -8 -8
-52 -12 -134 -12 l-122 0 -16 40 c-9 22 -16 49 -16 60 0 19 -7 20 -180 20
-173 0 -180 -1 -180 -20 0 -12 7 -20 17 -20 15 0 15 -1 0 -18 -10 -10 -17 -26
-17 -36 0 -14 10 -11 50 19 27 20 58 35 67 33 12 -2 -3 -18 -50 -53 -40 -29
-67 -56 -67 -67 0 -10 1 -18 3 -18 2 0 46 32 97 70 51 39 102 70 112 70 10 0
18 -2 18 -4 0 -12 -193 -146 -210 -146 -17 0 -20 -6 -20 -50 l0 -50 77 0 76 0
95 71 c62 47 97 68 104 61 7 -7 -16 -30 -68 -69 -62 -46 -73 -59 -57 -61 13
-2 52 19 104 57 45 34 89 61 96 61 22 0 7 -16 -64 -70 -56 -42 -62 -50 -41
-50 13 0 42 13 64 30 44 33 54 36 54 16 0 -7 -18 -26 -40 -41 l-40 -28 0 -163
c0 -134 -3 -165 -16 -178 -13 -13 -44 -16 -179 -16 l-163 0 0 -45 c0 -25 1
-45 2 -45 1 0 17 11 36 25 34 25 60 32 60 17 0 -4 -22 -25 -50 -45 -27 -21
-50 -44 -50 -52 0 -23 10 -19 75 31 37 28 61 40 64 33 4 -13 -41 -54 -101 -91
-37 -23 -37 -24 -38 -85 l0 -63 180 0 179 0 10 38 c6 20 11 41 11 46 0 5 7 18
17 28 14 15 32 18 125 18 158 0 151 13 146 -258 -2 -120 -7 -224 -12 -233 -11
-25 -106 -29 -618 -29 -445 0 -459 1 -478 20 -18 18 -20 33 -20 155 0 86 -4
135 -10 135 -6 0 -13 -6 -16 -14 -3 -7 -26 -28 -51 -46 -37 -27 -44 -29 -41
-14 4 21 165 147 178 139 4 -3 15 -2 24 1 14 6 16 59 16 514 l0 508 -31 7
c-63 14 -67 26 -61 186 2 79 9 152 14 162 8 16 44 17 538 17 467 0 530 -2 544
-16z m-1284 -194 c-14 -10 -27 -16 -30 -13 -6 6 30 33 44 33 6 0 0 -9 -14 -20z
m44 -39 c-75 -56 -95 -67 -79 -41 13 20 127 100 143 100 8 0 -20 -27 -64 -59z
m80 -12 c-20 -23 -148 -119 -158 -119 -3 0 -6 6 -6 13 0 6 39 40 87 74 85 61
115 74 77 32z m16 -53 c0 -7 -26 -33 -57 -57 -32 -23 -73 -54 -90 -67 -26 -19
-33 -21 -33 -9 0 14 154 144 173 146 4 1 7 -5 7 -13z m10 -69 c0 -20 -171
-140 -182 -129 -7 7 22 33 79 76 93 69 103 74 103 53z m-27 -102 c-53 -40
-103 -71 -110 -68 -17 7 -24 0 86 83 54 39 99 66 107 63 9 -3 -19 -31 -83 -78z
m827 45 c0 -16 -171 -140 -194 -140 -25 0 -22 3 89 84 90 66 105 74 105 56z
m-712 -34 c-1 -1 -40 -30 -85 -64 -45 -34 -84 -62 -87 -62 -3 0 -6 6 -6 14 0
22 174 148 178 130 2 -9 2 -17 0 -18z m729 -29 c-5 -13 -169 -137 -182 -137
-24 0 13 39 89 94 87 64 104 71 93 43z m-727 -29 c-1 -11 -146 -126 -173 -137
-5 -2 -7 4 -5 12 3 15 154 136 171 137 4 0 7 -6 7 -12z m0 -71 c0 -12 -159
-137 -174 -137 -23 0 7 34 77 87 87 65 97 71 97 50z m0 -71 c0 -7 -26 -33 -57
-57 -32 -23 -73 -54 -90 -67 -27 -20 -33 -21 -33 -8 0 12 162 146 177 146 1 0
3 -6 3 -14z m-2 -90 c-24 -19 -156 -114 -165 -120 -8 -4 -13 -2 -13 7 0 22
174 150 178 131 2 -9 2 -17 0 -18z m2 -59 c0 -12 -159 -137 -175 -137 -22 0
10 37 80 89 84 64 95 69 95 48z m0 -71 c0 -7 -26 -33 -57 -57 -32 -23 -73 -54
-90 -67 -27 -20 -33 -21 -33 -8 0 12 162 146 177 146 1 0 3 -6 3 -14z m0 -71
c0 -8 -35 -40 -77 -73 -99 -74 -103 -77 -103 -59 0 11 162 145 178 147 1 0 2
-7 2 -15z m0 -73 c0 -11 -32 -42 -85 -80 -90 -66 -98 -70 -93 -48 2 11 163
144 176 146 1 0 2 -8 2 -18z m0 -76 c0 -7 -26 -33 -57 -57 -32 -23 -73 -54
-92 -68 -30 -22 -33 -23 -30 -6 4 17 153 144 172 145 4 0 7 -6 7 -14z m0 -71
c0 -8 -35 -40 -77 -73 -99 -74 -103 -77 -103 -59 0 12 162 147 176 147 2 0 4
-7 4 -15z m530 -45 c-6 -11 -21 -20 -33 -20 l-22 1 24 19 c30 26 45 26 31 0z
m-533 -34 c-6 -14 -160 -136 -172 -136 -22 0 12 37 85 94 83 64 98 71 87 42z
m3 -64 c0 -11 -33 -42 -84 -80 -88 -65 -99 -71 -94 -48 2 11 160 142 176 145
1 1 2 -7 2 -17z m-103 -226 c-5 -13 -159 -136 -171 -136 -3 0 -6 6 -6 14 0 13
171 148 179 141 2 -2 1 -11 -2 -19z m1 -70 c-2 -8 -41 -44 -88 -80 -62 -47
-86 -61 -88 -49 -2 8 4 21 15 28 10 7 47 36 83 63 69 54 83 61 78 38z m2 -70
c0 -7 -35 -40 -77 -73 -98 -75 -103 -78 -103 -59 0 12 162 146 177 146 1 0 3
-6 3 -14z m0 -73 c0 -11 -32 -41 -77 -73 -100 -72 -103 -74 -103 -57 0 11 162
145 178 147 1 0 2 -8 2 -17z m50 -47 c0 -2 -43 -36 -95 -76 -65 -50 -99 -70
-106 -63 -12 12 156 142 184 143 9 0 17 -2 17 -4z m95 -4 c-71 -63 -188 -143
-205 -140 -17 2 1 19 76 76 54 39 107 72 118 72 12 0 16 -4 11 -8z m90 -2
c-15 -24 -180 -140 -199 -140 -25 0 -23 2 84 84 75 57 133 85 115 56z m105 5
c0 -13 -191 -146 -206 -143 -21 4 162 148 189 148 9 0 17 -2 17 -5z m100 1 c0
-12 -193 -146 -211 -146 -16 0 6 21 77 75 83 62 134 90 134 71z m90 -9 c-125
-98 -183 -138 -201 -135 -15 2 3 20 77 76 54 39 107 72 118 72 18 -1 19 -2 6
-13z m108 8 c-33 -33 -196 -145 -212 -145 -25 0 -23 2 84 84 48 37 95 65 109
65 13 1 22 -1 19 -4z m92 1 c0 -12 -194 -147 -207 -144 -20 4 164 146 190 147
9 1 17 -1 17 -3z m95 -5 c-37 -36 -193 -141 -209 -141 -24 0 -28 -4 84 80 52
39 103 70 114 70 12 0 16 -4 11 -9z m85 -9 c-13 -9 -60 -43 -103 -75 -43 -32
-86 -57 -95 -55 -24 5 167 147 198 147 l25 0 -25 -17z m30 -35 c0 -15 -108
-97 -128 -97 -8 0 17 25 55 55 78 62 73 59 73 42z m-5 -77 c-3 -5 -12 -10 -18
-10 -7 0 -6 4 3 10 19 12 23 12 15 0z"/>
</g>
</svg>
